# xmcd CD database file
#
# Track frame offsets:
#	150
#	12868
#	27808
#	40966
#	54623
#	70663
#	84508
#	97951
#	112634
#	126618
#	139810
#	153153
#	166616
#	180358
#	196297
#	211438
#	226868
#	240772
#	252250
#
# Disc length: 3472 seconds
#
# Revision: 0
# Processed by: cddbd v1.5.2PL0 Copyright (c) Steve Scherf et al.
# Submitted via: CDex 1.70beta2
#
DISCID=e40d8e13
DTITLE=Billie Holiday - Retrospective CD2
DYEAR=2006
DGENRE=Jazz
TTITLE0=Practice makes perfect
TTITLE1=Georgia on my mind
TTITLE2=Laughing at life
TTITLE3=Body and soul
TTITLE4=I'll be seeing you
TTITLE5=All of me
TTITLE6=Let's do it
TTITLE7=Gloomy sunday
TTITLE8=Time on my hands
TTITLE9=St. Louis blues
TTITLE10=God bless the child
TTITLE11=I cover the waterfront
TTITLE12=I'll get by
TTITLE13=Do nothin' till you hear from me
TTITLE14=Lover come back to me
TTITLE15=Don't explain
TTITLE16=On the sunny side of the street
TTITLE17=Big stuff
TTITLE18=Do you know what it means to miss New Orleans
EXTD=YEAR: 2006
EXTT0=
EXTT1=
EXTT2=
EXTT3=
EXTT4=
EXTT5=
EXTT6=
EXTT7=
EXTT8=
EXTT9=
EXTT10=
EXTT11=
EXTT12=
EXTT13=
EXTT14=
EXTT15=
EXTT16=
EXTT17=
EXTT18=
PLAYORDER=
